<svg width="91" height="91" viewBox="0 0 91 91" fill="none" xmlns="http://www.w3.org/2000/svg">
<g id="mdi:erase-outline">
<path id="Vector" d="M72.0417 59.1121L66.6954 64.4583L53.0833 50.8462L39.4712 64.4583L34.125 59.1121L47.7371 45.5L34.125 31.8879L39.4712 26.5417L53.0833 40.1538L66.6954 26.5417L72.0417 31.8879L58.4296 45.5L72.0417 59.1121ZM83.4167 11.375C85.4279 11.375 87.3567 12.174 88.7789 13.5961C90.201 15.0183 91 16.9471 91 18.9583V72.0417C91 74.0529 90.201 75.9817 88.7789 77.4039C87.3567 78.826 85.4279 79.625 83.4167 79.625H26.5417C23.9254 79.625 21.8779 78.26 20.5129 76.2504L0 45.5L20.5129 14.7117C21.8779 12.7021 23.9254 11.375 26.5417 11.375H83.4167ZM83.4167 18.9583H26.5417L8.645 45.5L26.5417 72.0417H83.4167V18.9583Z" fill="#414141"/>
</g>
</svg>
