<svg width="118" height="123" viewBox="0 0 118 123" fill="none" xmlns="http://www.w3.org/2000/svg">
<path d="M28.4444 4H16.2222C12.9807 4 9.87192 5.34623 7.57981 7.74252C5.28769 10.1388 4 13.3889 4 16.7778V29.5556M89.5556 4H101.778C105.019 4 108.128 5.34623 110.42 7.74252C112.712 10.1388 114 13.3889 114 16.7778V29.5556M83.4444 35.9444V48.7222M34.5556 35.9444V48.7222M40.6667 87.0556C40.6667 87.0556 46.7778 93.4444 59 93.4444C71.2222 93.4444 77.3333 87.0556 77.3333 87.0556M59 35.9444V67.8889H52.8889M28.4444 119H16.2222C12.9807 119 9.87192 117.654 7.57981 115.257C5.28769 112.861 4 109.611 4 106.222V93.4444M89.5556 119H101.778C105.019 119 108.128 117.654 110.42 115.257C112.712 112.861 114 109.611 114 106.222V93.4444" stroke="black" stroke-width="8" stroke-linecap="round" stroke-linejoin="round"/>
</svg>
